<svg xmlns="http://www.w3.org/2000/svg" width="18" height="20" fill="none" viewBox="0 0 18 20"><path fill="#272733" d="M16.384 4.241 12.902.76c-.413-.414-1.24-.76-1.83-.76h-10C.48 0 0 .48 0 1.071V18.93C0 19.52.48 20 1.071 20h15c.592 0 1.072-.48 1.072-1.071V6.07c0-.591-.346-1.417-.76-1.83m-4.955-2.723c.19.067.379.167.457.245l3.494 3.494c.078.078.178.268.245.457h-4.196Zm4.285 17.053H1.43V1.43H10v4.64c0 .592.48 1.072 1.071 1.072h4.643ZM4.286 8.93v.714c0 .2.156.357.357.357H12.5c.2 0 .357-.156.357-.357V8.93a.353.353 0 0 0-.357-.358H4.643a.353.353 0 0 0-.357.358m8.214 2.5H4.643a.35.35 0 0 0-.357.357v.714c0 .2.156.357.357.357H12.5c.2 0 .357-.156.357-.357v-.714a.35.35 0 0 0-.357-.357m0 2.857H4.643a.35.35 0 0 0-.357.357v.714c0 .201.156.357.357.357H12.5c.2 0 .357-.156.357-.357v-.714a.35.35 0 0 0-.357-.357"/></svg>