<svg xmlns="http://www.w3.org/2000/svg" width="20" height="20" fill="none" viewBox="0 0 20 20"><path fill="#3e9cdc" d="M16.429 14.85a.275.275 0 0 1-.268.267H3.839a.275.275 0 0 1-.268-.268V8.421q.264.3.578.552c1.197.92 2.402 1.858 3.566 2.83.628.527 1.406 1.171 2.277 1.171h.016c.87 0 1.65-.644 2.277-1.172a115 115 0 0 1 3.566-2.829q.315-.251.578-.552zm0-8.798c0 .711-.687 1.64-1.23 2.067a520 520 0 0 0-3.357 2.654c-.444.36-1.248 1.13-1.834 1.13h-.016c-.586 0-1.39-.77-1.834-1.13a518 518 0 0 0-3.356-2.654c-.753-.594-1.23-1.423-1.23-2.377 0-.142.125-.268.267-.268h12.322c.318 0 .268.368.268.578m1.071-.31c0-.737-.603-1.34-1.34-1.34H3.84c-.737 0-1.34.603-1.34 1.34v9.107c0 .737.603 1.34 1.34 1.34h12.32c.737 0 1.34-.603 1.34-1.34z"/></svg>