<svg xmlns="http://www.w3.org/2000/svg" width="20" height="20" fill="none" viewBox="0 0 20 20"><path fill="#3e9cdc" d="M14.846 12.286q0 .976-.37 1.714-.368.739-.993 1.222a4.6 4.6 0 0 1-1.626.826q-.878.246-2.24.246h-5.24V3.207H9q1.442 0 2.18.114.747.106 1.397.457.704.379 1.046 1.011.351.633.352 1.46 0 .957-.484 1.704a2.8 2.8 0 0 1-1.318 1.099v.07q1.213.255 1.942 1.046.73.783.73 2.118m-4.21-5.379q0-.315-.167-.65a.96.96 0 0 0-.501-.483 2 2 0 0 0-.774-.15 36 36 0 0 0-1.318-.017h-.228v2.768h.413q.843 0 1.177-.017.343-.018.704-.185.395-.184.544-.51.15-.325.15-.756m.826 5.318q0-.607-.246-.95t-.738-.518q-.3-.114-.827-.123a44 44 0 0 0-1.397-.018h-.606v3.279h.175q1.284 0 1.776-.018t1.002-.237q.447-.195.65-.563.21-.378.211-.852"/></svg>