<svg xmlns="http://www.w3.org/2000/svg" width="20" height="20" fill="none" viewBox="0 0 20 20"><g clip-path="url(#a)"><path fill="#3e9cdc" d="M8.84 0c1.411 0 2.753.323 3.957.901.189.085.379.187.567.29l-.826.73L11.301.647l-2.133 1.87-1.256-1.343L3.99 4.66l2.511 2.737-.98.85 2.477 2.738-.98.85 3.543 3.893 2.098-1.904 1.824 2.04c-.362.273-.758.546-1.187.783a9.07 9.07 0 0 1-4.438 1.156c-4.971 0-9.012-3.995-9.012-8.909C-.172 4.013 3.87 0 8.84 0M7.19 8.349l2.15-1.905 1.926 2.126-2.15 1.904zm1.53 3.672 2.133-1.92 1.944 2.124-2.15 1.905zM5.66 4.727l2.149-1.904 1.926 2.125-2.15 1.904zm3.937-1.02 1.6-1.429 1.445 1.582-1.6 1.445zm2.856 6.546 1.6-1.428 1.444 1.597-1.6 1.43zm1.41 3.214 1.6-1.429 1.444 1.582-1.6 1.444zm.654-7.346 1.066-.952.963 1.054-1.066.952zM13.14 2.975l1.066-.968.964 1.07-1.067.953zm2.735 6.292 1.066-.952.98 1.054-1.083.952zm-4.8-2.364 1.6-1.428 1.445 1.581-1.599 1.429z"/></g><defs><clipPath id="a"><path fill="#fff" d="M0 0h20v20H0z"/></clipPath></defs></svg>