<svg xmlns="http://www.w3.org/2000/svg" width="20" height="20" fill="none" viewBox="0 0 20 20"><path fill="#3e9cdc" fill-rule="evenodd" d="M3.28 9.93c0-.983.083-1.608 2.138-3.13 1.702-1.259 7.155-5.563 7.155-5.563v7.185h4.147v10.34H4.575a1.294 1.294 0 0 1-1.295-1.284z" clip-rule="evenodd"/><path fill="#000" fill-opacity=".2" fill-rule="evenodd" d="M12.573 8.422v4.163l-7.62 5.148 9.634-3.108V8.422z" clip-rule="evenodd"/><path fill="#231f20" fill-rule="evenodd" d="M9.09 8.207c.446-.527 1.097-.713 1.454-.415.358.297.286.965-.16 1.492-.445.526-1.096.712-1.453.415-.358-.298-.286-.966.16-1.492" clip-rule="evenodd"/></svg>